<svg width="167" height="62" viewBox="0 0 167 62" fill="none" xmlns="http://www.w3.org/2000/svg">
<g filter="url(#filter0_d)">
<path d="M4 20C4 8.95431 12.9543 0 24 0H89.1961C90.5545 0 91.9093 0.138384 93.2396 0.413009L147.043 11.5201C156.335 13.4382 163 21.62 163 31.1071V34C163 45.0457 154.046 54 143 54H24C12.9543 54 4 45.0457 4 34V20Z" fill="#9D585E"/>
<path d="M6.5 20C6.5 10.335 14.335 2.5 24 2.5H89.1961C90.3847 2.5 91.5701 2.62109 92.7342 2.86138L146.538 13.9685C154.668 15.6468 160.5 22.8059 160.5 31.1071V34C160.5 43.665 152.665 51.5 143 51.5H24C14.335 51.5 6.5 43.665 6.5 34V20Z" stroke="#E9D8D9" stroke-width="5"/>
</g>
<path d="M51.0195 39.08H57.8995C57.8995 39.8533 57.8862 40.48 57.8595 40.96C57.8595 41.44 57.8062 41.7333 57.6995 41.84C57.6195 41.9467 57.4729 42 57.2595 42H47.8195V14.64C47.8195 14.5333 47.8595 14.4 47.9395 14.24C48.0195 14.08 48.1929 14 48.4595 14H58.0595C58.0595 14.7467 58.0462 15.36 58.0195 15.84C58.0195 16.32 57.9795 16.6267 57.8995 16.76C57.8195 16.8667 57.6729 16.92 57.4595 16.92H51.0195V25.28H57.0595C57.0595 26 57.0462 26.6 57.0195 27.08C57.0195 27.56 56.9795 27.88 56.8995 28.04C56.8195 28.1733 56.6729 28.24 56.4595 28.24H51.0195V39.08ZM60.632 22.96C61.4587 22.5867 62.472 22.2667 63.672 22C64.872 21.7333 65.9787 21.6 66.992 21.6C69.072 21.6 70.5254 22.0133 71.352 22.84C72.1787 23.64 72.592 25.0133 72.592 26.96V41.36C72.592 41.6 72.5387 41.76 72.432 41.84C72.3254 41.92 71.992 41.9733 71.432 42C70.8987 42 70.1787 42 69.272 42V27.92C69.272 26.5867 69.112 25.6667 68.792 25.16C68.472 24.6533 67.832 24.4 66.872 24.4C66.392 24.4 65.872 24.4667 65.312 24.6C64.752 24.7067 64.272 24.88 63.872 25.12V41.36C63.872 41.6 63.8187 41.76 63.712 41.84C63.6054 41.92 63.2854 41.9733 62.752 42C62.2187 42 61.512 42 60.632 42V22.96ZM81.4245 42.4C80.3312 42.4 79.5045 42.1733 78.9445 41.72C78.4112 41.24 78.0512 40.5867 77.8645 39.76C77.7045 38.9067 77.6245 37.8 77.6245 36.44V24.76H74.9045C74.9045 24.04 74.9179 23.4667 74.9445 23.04C74.9712 22.5867 75.0245 22.3067 75.1045 22.2C75.2112 22.0667 75.3712 22 75.5845 22H77.6245V15.92C77.6245 15.5467 77.7045 15.2933 77.8645 15.16C78.0512 15 78.3312 14.9067 78.7045 14.88C79.1045 14.8267 79.8112 14.8 80.8245 14.8V22H84.9845C84.9845 22.72 84.9712 23.3067 84.9445 23.76C84.9179 24.2133 84.8512 24.4933 84.7445 24.6C84.6645 24.7067 84.5179 24.76 84.3045 24.76H80.8245V36.44C80.8245 37.5333 80.9045 38.3467 81.0645 38.88C81.2512 39.3867 81.6645 39.64 82.3045 39.64C82.7312 39.64 83.1045 39.6 83.4245 39.52C83.7445 39.4133 84.1445 39.2533 84.6245 39.04C84.7845 39.5733 84.8645 40.1067 84.8645 40.64C84.8645 41.28 84.5312 41.7333 83.8645 42C83.1979 42.2667 82.3845 42.4 81.4245 42.4ZM87.6242 23.4C89.3309 22.2 91.1442 21.6 93.0642 21.6C94.0509 21.6 94.7576 21.7467 95.1842 22.04C95.6376 22.3067 95.8642 22.72 95.8642 23.28C95.8642 23.9467 95.7442 24.5733 95.5042 25.16C94.9442 24.84 94.3042 24.68 93.5842 24.68C92.5442 24.68 91.6642 24.9867 90.9442 25.6L90.9042 41.36C90.9042 41.6 90.8509 41.76 90.7442 41.84C90.6376 41.92 90.3176 41.9733 89.7842 42C89.2509 42 88.5309 42 87.6242 42V23.4ZM102.972 42.4C101.265 42.4 99.9187 42 98.932 41.2C97.972 40.3733 97.492 38.7467 97.492 36.32C97.492 33.7867 97.972 32.0667 98.932 31.16C99.9187 30.2267 101.225 29.76 102.852 29.76C104.105 29.76 105.079 29.9333 105.772 30.28V27.12C105.772 26.2133 105.572 25.5867 105.172 25.24C104.772 24.8933 104.145 24.72 103.292 24.72C102.332 24.72 101.359 24.8133 100.372 25C99.3854 25.16 98.5854 25.3733 97.972 25.64C97.6787 25.08 97.532 24.4533 97.532 23.76C97.532 23.2267 97.6787 22.8667 97.972 22.68C98.372 22.4133 99.1454 22.1733 100.292 21.96C101.439 21.72 102.705 21.6 104.092 21.6C105.825 21.6 107.079 21.9733 107.852 22.72C108.625 23.4667 109.012 24.72 109.012 26.48V28.6C109.012 34.4667 108.932 38.6133 108.772 41.04C108.132 41.44 107.319 41.76 106.332 42C105.345 42.2667 104.225 42.4 102.972 42.4ZM103.532 39.68C103.959 39.68 104.372 39.6133 104.772 39.48C105.172 39.3467 105.465 39.2 105.652 39.04C105.732 38.1333 105.772 35.9733 105.772 32.56C105.265 32.2933 104.639 32.16 103.892 32.16C102.932 32.16 102.185 32.44 101.652 33C101.119 33.56 100.852 34.64 100.852 36.24C100.852 37.6 101.065 38.52 101.492 39C101.945 39.4533 102.625 39.68 103.532 39.68ZM112.273 23.4C113.979 22.2 115.793 21.6 117.713 21.6C118.699 21.6 119.406 21.7467 119.833 22.04C120.286 22.3067 120.513 22.72 120.513 23.28C120.513 23.9467 120.393 24.5733 120.153 25.16C119.593 24.84 118.953 24.68 118.233 24.68C117.193 24.68 116.313 24.9867 115.593 25.6L115.553 41.36C115.553 41.6 115.499 41.76 115.393 41.84C115.286 41.92 114.966 41.9733 114.433 42C113.899 42 113.179 42 112.273 42V23.4Z" fill="#E9D8D9"/>
<defs>
<filter id="filter0_d" x="0" y="0" width="167" height="62" filterUnits="userSpaceOnUse" color-interpolation-filters="sRGB">
<feFlood flood-opacity="0" result="BackgroundImageFix"/>
<feColorMatrix in="SourceAlpha" type="matrix" values="0 0 0 0 0 0 0 0 0 0 0 0 0 0 0 0 0 0 127 0"/>
<feOffset dy="4"/>
<feGaussianBlur stdDeviation="2"/>
<feColorMatrix type="matrix" values="0 0 0 0 0 0 0 0 0 0 0 0 0 0 0 0 0 0 0.25 0"/>
<feBlend mode="normal" in2="BackgroundImageFix" result="effect1_dropShadow"/>
<feBlend mode="normal" in="SourceGraphic" in2="effect1_dropShadow" result="shape"/>
</filter>
</defs>
</svg>
