<svg width="56" height="49" viewBox="0 0 56 49" fill="none" xmlns="http://www.w3.org/2000/svg">
<g filter="url(#filter0_d)">
<path d="M4 20C4 8.95431 12.9543 0 24 0H24.9493C28.2033 0 31.4081 0.793937 34.2857 2.31293L41.3155 6.02373C47.4029 9.23702 51.2121 15.5552 51.2121 22.4386C51.2121 32.6898 42.9019 41 32.6507 41H24C12.9543 41 4 32.0457 4 21V20Z" fill="#E9D8D9"/>
<path d="M5.5 20C5.5 9.78273 13.7827 1.5 24 1.5H24.9493C27.9592 1.5 30.9236 2.23439 33.5855 3.63946L40.6153 7.35026C46.2107 10.3039 49.7121 16.1114 49.7121 22.4386C49.7121 31.8613 42.0735 39.5 32.6507 39.5H24C13.7827 39.5 5.5 31.2173 5.5 21V20Z" stroke="#9D585E" stroke-width="3"/>
</g>
<path d="M17.2929 20.7071C16.9024 20.3166 16.9024 19.6834 17.2929 19.2929L23.6569 12.9289C24.0474 12.5384 24.6805 12.5384 25.0711 12.9289C25.4616 13.3195 25.4616 13.9526 25.0711 14.3431L19.4142 20L25.0711 25.6569C25.4616 26.0474 25.4616 26.6805 25.0711 27.0711C24.6805 27.4616 24.0474 27.4616 23.6569 27.0711L17.2929 20.7071ZM38 21H18V19H38V21Z" fill="#9D585E"/>
<defs>
<filter id="filter0_d" x="0" y="0" width="55.2121" height="49" filterUnits="userSpaceOnUse" color-interpolation-filters="sRGB">
<feFlood flood-opacity="0" result="BackgroundImageFix"/>
<feColorMatrix in="SourceAlpha" type="matrix" values="0 0 0 0 0 0 0 0 0 0 0 0 0 0 0 0 0 0 127 0"/>
<feOffset dy="4"/>
<feGaussianBlur stdDeviation="2"/>
<feColorMatrix type="matrix" values="0 0 0 0 0 0 0 0 0 0 0 0 0 0 0 0 0 0 0.25 0"/>
<feBlend mode="normal" in2="BackgroundImageFix" result="effect1_dropShadow"/>
<feBlend mode="normal" in="SourceGraphic" in2="effect1_dropShadow" result="shape"/>
</filter>
</defs>
</svg>
