<svg width="145" height="143" viewBox="0 0 145 143" fill="none" xmlns="http://www.w3.org/2000/svg">
<g filter="url(#filter0_d)">
<path d="M4 20C4 8.9543 12.9543 0 24 0H73.6415C77.2582 0 80.8071 0.980693 83.9106 2.83769L131.269 31.1748C137.305 34.7864 141 41.3032 141 48.3371V114.861C141 125.907 132.046 134.861 121 134.861H24C12.9543 134.861 4 125.907 4 114.861V20Z" fill="#E9D8D9"/>
<path d="M136 48.3371V114.861C136 123.145 129.284 129.861 121 129.861H24C15.7157 129.861 9 123.145 9 114.861V20C9 11.7157 15.7157 5 24 5H73.6415C76.354 5 79.0157 5.73552 81.3434 7.12826L128.702 35.4654C133.229 38.1741 136 43.0617 136 48.3371Z" stroke="#9D585E" stroke-width="10"/>
</g>
<path d="M40.2244 111.1C35.6044 111.1 32.0111 110.44 29.4444 109.12C26.9511 107.8 25.7044 106.297 25.7044 104.61C25.7044 103.657 25.8878 102.593 26.2544 101.42C26.6944 100.247 27.2811 99.1833 28.0144 98.23C30.8744 100.797 34.6511 102.08 39.3444 102.08C46.6044 102.08 50.2344 98.34 50.2344 90.86C50.2344 88.22 49.7578 85.8733 48.8044 83.82C47.8511 81.6933 46.1644 79.2 43.7444 76.34L32.7444 63.47C30.2511 60.4633 28.4544 57.75 27.3544 55.33C26.3278 52.8367 25.8144 50.27 25.8144 47.63C25.8144 42.8633 27.4644 39.05 30.7644 36.19C34.1378 33.33 38.7944 31.9 44.7344 31.9C49.6478 31.9 53.2778 32.4133 55.6244 33.44C57.9711 34.3933 59.1444 35.7133 59.1444 37.4C59.1444 39.2333 58.4111 40.92 56.9444 42.46C56.1378 41.8 54.7078 41.2133 52.6544 40.7C50.6744 40.1133 48.5111 39.82 46.1644 39.82C42.8644 39.82 40.2244 40.48 38.2444 41.8C36.3378 43.12 35.3844 44.99 35.3844 47.41C35.3844 49.3167 35.7878 51.0767 36.5944 52.69C37.4011 54.23 38.6844 56.1 40.4444 58.3L52.4344 71.83C55.2211 75.13 57.1278 78.1733 58.1544 80.96C59.2544 83.7467 59.8044 86.9 59.8044 90.42C59.8044 96.6533 58.2644 101.677 55.1844 105.49C52.1778 109.23 47.1911 111.1 40.2244 111.1ZM99.2283 32.89C101.868 32.89 103.188 33.44 103.188 34.54C103.188 34.8333 103.078 35.1633 102.858 35.53L85.0383 66.22C93.8383 72.8933 99.7416 86.8267 102.748 108.02C102.822 108.9 102.602 109.487 102.088 109.78C101.648 110.073 100.658 110.22 99.1183 110.22C97.2116 110.22 95.1583 110.11 92.9583 109.89C91.1983 100.577 89.4016 93.2433 87.5683 87.89C85.7349 82.4633 83.3516 78.1733 80.4183 75.02C79.4649 73.92 77.9983 72.93 76.0183 72.05V108.24C76.0183 108.9 75.8716 109.34 75.5783 109.56C75.3583 109.78 74.5149 109.927 73.0483 110C71.5816 110 69.5649 110 66.9983 110V34.76C66.9983 34.1 67.1083 33.66 67.3283 33.44C67.6216 33.22 68.5016 33.11 69.9683 33.11C71.4349 33.0367 73.4516 33 76.0183 33V66.22L93.6183 33.55C95.7449 33.11 97.6149 32.89 99.2283 32.89ZM115.362 110.66C113.162 110.66 111.586 110.147 110.632 109.12C109.679 108.02 109.202 106.443 109.202 104.39C109.202 102.63 109.752 101.163 110.852 99.99C112.026 98.7433 113.529 98.12 115.362 98.12C119.396 98.12 121.412 100.21 121.412 104.39C121.412 106.223 120.862 107.727 119.762 108.9C118.662 110.073 117.196 110.66 115.362 110.66Z" fill="#9D585E"/>
<defs>
<filter id="filter0_d" x="0" y="0" width="145" height="142.861" filterUnits="userSpaceOnUse" color-interpolation-filters="sRGB">
<feFlood flood-opacity="0" result="BackgroundImageFix"/>
<feColorMatrix in="SourceAlpha" type="matrix" values="0 0 0 0 0 0 0 0 0 0 0 0 0 0 0 0 0 0 127 0"/>
<feOffset dy="4"/>
<feGaussianBlur stdDeviation="2"/>
<feColorMatrix type="matrix" values="0 0 0 0 0 0 0 0 0 0 0 0 0 0 0 0 0 0 0.25 0"/>
<feBlend mode="normal" in2="BackgroundImageFix" result="effect1_dropShadow"/>
<feBlend mode="normal" in="SourceGraphic" in2="effect1_dropShadow" result="shape"/>
</filter>
</defs>
</svg>
