<svg width="88" height="88" viewBox="0 0 88 88" fill="none" xmlns="http://www.w3.org/2000/svg">
<g filter="url(#filter0_d)">
<path d="M9 20C9 8.9543 17.9543 0 29 0H58C69.0457 0 78 8.95431 78 20V36.7681C78 43.9499 74.1493 50.5803 67.9114 54.1394L52.8564 62.7291C49.6797 64.5416 47.0608 67.1905 45.2846 70.3877L43 74.5L40.0599 69.6889C38.3782 66.9371 36.0561 64.6328 33.2915 62.9725L18.7027 54.2106C12.6828 50.5951 9 44.0873 9 37.0652V20Z" fill="#E9D8D9"/>
<path d="M11.5 20C11.5 10.335 19.335 2.5 29 2.5H58C67.665 2.5 75.5 10.335 75.5 20V36.7681C75.5 43.0522 72.1306 48.8538 66.6724 51.968L51.6175 60.5577C48.0437 62.5968 45.0975 65.5768 43.0992 69.1735L42.8971 69.5373L42.1931 68.3852C40.3012 65.2895 37.6889 62.6972 34.5787 60.8293L19.9898 52.0674C14.7224 48.9039 11.5 43.2096 11.5 37.0652V20Z" stroke="#9D585E" stroke-width="5"/>
</g>
<path d="M29.7798 45.45C27.8898 45.45 26.4198 45.18 25.3698 44.64C24.3498 44.1 23.8398 43.485 23.8398 42.795C23.8398 42.405 23.9148 41.97 24.0648 41.49C24.2448 41.01 24.4848 40.575 24.7848 40.185C25.9548 41.235 27.4998 41.76 29.4198 41.76C32.3898 41.76 33.8748 40.23 33.8748 37.17C33.8748 36.09 33.6798 35.13 33.2898 34.29C32.8998 33.42 32.2098 32.4 31.2198 31.23L26.7198 25.965C25.6998 24.735 24.9648 23.625 24.5148 22.635C24.0948 21.615 23.8848 20.565 23.8848 19.485C23.8848 17.535 24.5598 15.975 25.9098 14.805C27.2898 13.635 29.1948 13.05 31.6248 13.05C33.6348 13.05 35.1198 13.26 36.0798 13.68C37.0398 14.07 37.5198 14.61 37.5198 15.3C37.5198 16.05 37.2198 16.74 36.6198 17.37C36.2898 17.1 35.7048 16.86 34.8648 16.65C34.0548 16.41 33.1698 16.29 32.2098 16.29C30.8598 16.29 29.7798 16.56 28.9698 17.1C28.1898 17.64 27.7998 18.405 27.7998 19.395C27.7998 20.175 27.9648 20.895 28.2948 21.555C28.6248 22.185 29.1498 22.95 29.8698 23.85L34.7748 29.385C35.9148 30.735 36.6948 31.98 37.1148 33.12C37.5648 34.26 37.7898 35.55 37.7898 36.99C37.7898 39.54 37.1598 41.595 35.8998 43.155C34.6698 44.685 32.6298 45.45 29.7798 45.45ZM53.9177 13.455C54.9977 13.455 55.5377 13.68 55.5377 14.13C55.5377 14.25 55.4927 14.385 55.4027 14.535L48.1127 27.09C51.7127 29.82 54.1277 35.52 55.3577 44.19C55.3877 44.55 55.2977 44.79 55.0877 44.91C54.9077 45.03 54.5027 45.09 53.8727 45.09C53.0927 45.09 52.2527 45.045 51.3527 44.955C50.6327 41.145 49.8977 38.145 49.1477 35.955C48.3977 33.735 47.4227 31.98 46.2227 30.69C45.8327 30.24 45.2327 29.835 44.4227 29.475V44.28C44.4227 44.55 44.3627 44.73 44.2427 44.82C44.1527 44.91 43.8077 44.97 43.2077 45C42.6077 45 41.7827 45 40.7327 45V14.22C40.7327 13.95 40.7777 13.77 40.8677 13.68C40.9877 13.59 41.3477 13.545 41.9477 13.545C42.5477 13.515 43.3727 13.5 44.4227 13.5V27.09L51.6227 13.725C52.4927 13.545 53.2577 13.455 53.9177 13.455ZM60.5179 45.27C59.6179 45.27 58.9729 45.06 58.5829 44.64C58.1929 44.19 57.9979 43.545 57.9979 42.705C57.9979 41.985 58.2229 41.385 58.6729 40.905C59.1529 40.395 59.7679 40.14 60.5179 40.14C62.1679 40.14 62.9929 40.995 62.9929 42.705C62.9929 43.455 62.7679 44.07 62.3179 44.55C61.8679 45.03 61.2679 45.27 60.5179 45.27Z" fill="#9D585E"/>
<defs>
<filter id="filter0_d" x="5" y="0" width="77" height="82.5" filterUnits="userSpaceOnUse" color-interpolation-filters="sRGB">
<feFlood flood-opacity="0" result="BackgroundImageFix"/>
<feColorMatrix in="SourceAlpha" type="matrix" values="0 0 0 0 0 0 0 0 0 0 0 0 0 0 0 0 0 0 127 0"/>
<feOffset dy="4"/>
<feGaussianBlur stdDeviation="2"/>
<feColorMatrix type="matrix" values="0 0 0 0 0 0 0 0 0 0 0 0 0 0 0 0 0 0 0.25 0"/>
<feBlend mode="normal" in2="BackgroundImageFix" result="effect1_dropShadow"/>
<feBlend mode="normal" in="SourceGraphic" in2="effect1_dropShadow" result="shape"/>
</filter>
</defs>
</svg>
